<?xml version="1.0" encoding="UTF-8" standalone="no"?>
<!DOCTYPE svg PUBLIC "-//W3C//DTD SVG 1.1//EN" "http://www.w3.org/Graphics/SVG/1.1/DTD/svg11.dtd">
<svg width="100%" height="100%" viewBox="0 0 397 398" version="1.1" xmlns="http://www.w3.org/2000/svg" xmlns:xlink="http://www.w3.org/1999/xlink" xml:space="preserve" xmlns:serif="http://www.serif.com/" style="fill-rule:evenodd;clip-rule:evenodd;stroke-linejoin:round;stroke-miterlimit:2;">
    <g transform="matrix(1,0,0,1,-1.51599,-1.38484)">
        <g id="path0" transform="matrix(1,0,0,1,-2.46874e-06,4.65826e-06)">
            <path d="M208.751,66.44C204.941,67.078 199.01,70.246 196.094,73.203C194.017,75.308 194.175,75.278 192.084,73.958C191.177,73.385 190.214,72.917 189.944,72.917C189.674,72.917 189.453,72.798 189.453,72.653C189.453,70.962 178.405,67.726 174.219,68.192C167.713,68.915 158.145,74.198 156.973,77.713C156.845,78.099 155.871,78.102 152.212,77.724C138.944,76.356 129.281,80.502 125.154,89.334L124.023,91.754L121.68,91.961C120.391,92.075 118.219,92.268 116.855,92.389C111.841,92.834 104.559,96.021 100.586,99.509C98.489,101.349 95.734,105.925 94.536,109.556C94.119,110.821 90.86,112.364 87.062,113.095C86.258,113.25 82.431,115.323 81.002,116.377C80.544,116.715 79.765,117.256 79.272,117.578C75.932,119.76 69.141,128.364 69.141,130.413C69.141,130.68 68.864,131.434 68.525,132.089C67.608,133.861 67.496,134.54 67.292,139.537C67.109,144.04 66.906,144.703 65.624,144.987C65.302,145.059 64.934,145.261 64.805,145.436C64.676,145.612 64.324,145.798 64.023,145.851C62.894,146.048 61.719,146.547 61.719,146.829C61.719,146.99 60.972,147.542 60.059,148.055C57.593,149.44 52.96,153.713 50.748,156.641C50.017,157.607 49.287,158.457 49.124,158.529C48.961,158.6 48.828,158.886 48.828,159.164C48.828,159.442 48.566,159.887 48.246,160.153C47.927,160.418 47.752,160.776 47.858,160.948C47.965,161.121 47.905,161.32 47.725,161.392C47.316,161.556 45.523,165.347 44.777,167.625C42.894,173.374 43.173,180.913 45.514,187.5C46.96,191.571 47.025,191.982 46.336,192.671C46.003,193.004 45.428,194.043 45.06,194.978C44.691,195.914 44.202,196.809 43.972,196.967C43.743,197.125 43.682,197.256 43.838,197.26C43.994,197.263 43.965,197.676 43.775,198.177C43.584,198.678 43.325,199.689 43.198,200.423C43.071,201.157 42.806,202.44 42.607,203.273C42.038,205.668 42.235,216.673 42.889,218.945C44.547,224.715 46.254,228.919 47.607,230.566C47.915,230.942 48.04,231.25 47.884,231.25C47.728,231.25 47.833,231.492 48.117,231.788C48.401,232.084 48.896,232.738 49.219,233.241C51.759,237.207 58.712,242.546 64.635,245.079C69.514,247.165 70.859,247.543 76.758,248.489C79.384,248.909 90.898,248.72 94.795,248.192L96.425,247.97L97.615,250.059C98.897,252.312 99.428,253.12 100.483,254.431C100.856,254.894 101.559,255.767 102.045,256.37C104.138,258.964 108.448,262.995 110.742,264.504C113.204,266.124 117.786,268.75 118.149,268.75C118.331,268.75 119.391,269.181 120.505,269.708C121.618,270.235 123.833,271.094 125.425,271.616C129.231,272.864 130.212,273.096 136.523,274.246C149.051,276.526 165.449,274.401 181.247,268.448C183.307,267.672 184.74,267.843 184.152,268.794C184.035,268.985 184.104,269.141 184.306,269.141C184.659,269.141 185.286,270.582 185.198,271.191C185.175,271.353 185.315,271.484 185.509,271.484C185.861,271.484 186.88,273.764 186.775,274.316C186.744,274.478 186.854,274.609 187.02,274.609C187.185,274.609 187.757,275.441 188.289,276.458C188.822,277.475 189.478,278.542 189.746,278.83C190.015,279.117 190.234,279.503 190.234,279.688C190.234,279.872 190.46,280.255 190.736,280.539C191.011,280.822 191.665,281.67 192.188,282.422C192.71,283.174 193.364,284.021 193.639,284.305C193.915,284.589 194.141,284.961 194.141,285.131C194.141,285.302 194.665,286.036 195.306,286.763C195.947,287.491 196.475,288.191 196.478,288.319C196.484,288.523 196.808,288.954 198.374,290.841C198.562,291.067 199.222,292.034 199.842,292.99C200.462,293.945 201.065,294.814 201.183,294.922C201.3,295.029 201.956,295.996 202.641,297.07C203.326,298.145 204.051,299.22 204.254,299.46C204.457,299.701 205.099,300.843 205.681,301.999C206.264,303.156 206.895,304.161 207.083,304.233C207.272,304.305 207.336,304.51 207.225,304.689C207.115,304.869 207.302,305.293 207.641,305.633C207.981,305.972 208.115,306.253 207.938,306.256C207.762,306.259 207.814,306.391 208.055,306.549C209.064,307.211 213.429,318.911 214.246,323.145C214.43,324.101 214.63,325.052 215.046,326.953C215.117,327.275 215.201,327.539 215.234,327.539C215.355,327.539 215.551,329.202 215.784,332.227C216.027,335.381 216.289,337.296 216.597,338.174C216.774,338.678 219.196,338.602 226.449,337.866C228.428,337.664 230.345,337.5 230.708,337.5C231.459,337.5 231.269,325.22 230.457,321.289C230.235,320.215 229.962,318.721 229.85,317.969C229.738,317.217 229.401,315.723 229.101,314.648C228.801,313.574 228.452,312.1 228.325,311.372C228.199,310.644 227.92,309.721 227.706,309.321C227.491,308.921 227.399,308.594 227.5,308.594C227.714,308.594 225.415,302.092 224.392,299.805C222.267,295.052 218.643,287.665 217.978,286.732C217.556,286.139 217.323,285.542 217.459,285.405C217.596,285.268 217.543,285.156 217.341,285.156C217.14,285.156 216.627,284.497 216.203,283.691C215.779,282.886 215.255,282.022 215.04,281.772C214.825,281.522 214.209,280.735 213.672,280.023C212.189,278.058 210.078,275.677 209.044,274.805C208.535,274.375 207.654,273.617 207.087,273.121C206.519,272.624 205.371,271.861 204.535,271.425C203.699,270.988 202.82,270.468 202.582,270.269C202.343,270.07 201.781,269.603 201.331,269.231C197.264,265.867 200.324,258.75 205.268,260.072C206.994,260.534 211.827,263.137 213.588,264.554C214.701,265.45 221.788,272.607 222.461,273.515C223.975,275.558 225.327,277.729 225.759,278.809C226.038,279.507 226.431,280.078 226.633,280.078C226.834,280.078 226.903,280.234 226.785,280.424C226.667,280.615 226.793,280.955 227.065,281.181C227.337,281.407 228.111,282.789 228.785,284.253C232.958,293.312 233.756,294.858 234.58,295.477C235.083,295.855 235.618,296.133 235.77,296.095C235.921,296.058 236.153,296.174 236.284,296.353C236.683,296.898 239.712,298.438 240.385,298.438C240.732,298.438 241.016,298.58 241.016,298.754C241.016,299.27 246.128,300.851 250.781,301.775C260.773,303.76 276.225,300.209 282.617,294.459C285.524,291.844 287.5,289.659 287.5,289.06C287.5,288.846 287.672,288.672 287.883,288.672C288.094,288.672 288.377,288.232 288.511,287.695C288.646,287.158 288.896,286.719 289.067,286.719C289.388,286.719 290.389,284.403 290.29,283.887C290.26,283.726 290.391,283.594 290.583,283.594C290.774,283.594 291.041,283.154 291.176,282.617C291.459,281.49 291.588,281.476 294.727,282.234C305.61,284.862 316.011,280.437 320.855,271.118C322.658,267.649 323.763,262.546 323.693,258.008C323.63,253.897 324.001,253.125 326.043,253.125C327.762,253.125 334.319,249.623 336.026,247.793C338.846,244.771 339.296,244.111 340.534,241.178C342.269,237.067 342.463,232.739 341.215,225.977C341.004,224.834 341.081,224.767 344.293,223.292C348.12,221.534 353.101,217.042 353.12,215.332C353.123,215.063 353.285,214.844 353.481,214.844C353.772,214.844 355.767,210.253 356.113,208.789C357.11,204.571 357.088,199.916 356.05,195.508C355.131,191.609 353.416,187.921 351.126,184.922L349.605,182.93L350.849,180.235C351.533,178.752 352.147,177.242 352.213,176.878C352.278,176.515 352.596,175.46 352.918,174.535C354.007,171.408 353.451,163.335 351.955,160.547C351.666,160.01 351.478,159.519 351.537,159.456C351.753,159.223 350.674,157.031 350.343,157.031C350.154,157.031 350.038,156.899 350.084,156.738C350.536,155.159 341.647,146.493 338.284,145.235C338.11,145.17 337.884,142.393 337.782,139.063C337.679,135.732 337.502,132.656 337.388,132.227C337.273,131.797 336.871,130.215 336.494,128.711C335.168,123.424 331.438,116.03 328.333,112.533C324.257,107.941 319.778,104.062 316.797,102.541C316.045,102.158 315.322,101.678 315.191,101.475C315.059,101.271 314.883,101.148 314.8,101.2C314.717,101.252 313.791,100.916 312.743,100.452C311.695,99.989 310.729,99.608 310.595,99.607C309.245,99.595 307.422,98.688 307.422,98.029C307.422,97.609 307.29,97.265 307.129,97.265C306.968,97.265 306.358,96.43 305.773,95.41C301.452,87.87 291.942,83.686 279.997,84.069C275.324,84.219 274.219,84.154 274.219,83.729C274.219,83.44 274.086,83.203 273.923,83.203C273.761,83.203 273.381,82.644 273.079,81.961C272.084,79.714 267.976,75.465 265.574,74.199C265.065,73.931 264.561,73.606 264.453,73.477C264.135,73.094 260.113,71.457 258.008,70.852C251.842,69.081 239.159,71.259 236.328,74.576C236.22,74.702 235.534,75.12 234.802,75.505L233.472,76.206L232.263,75.039C229.967,72.822 227.538,70.713 227.274,70.708C227.128,70.705 226.763,70.457 226.463,70.157C223.491,67.185 214.976,65.398 208.751,66.44M233.789,86.863C235.078,87.173 236.748,87.52 237.5,87.632C238.252,87.745 239.307,87.934 239.844,88.053C241.35,88.385 242.696,88.67 243.555,88.839C245.531,89.227 253.359,91.115 257.422,92.184C259.893,92.833 262.224,93.442 262.603,93.536C264.658,94.047 269.531,97.49 269.531,98.432C269.531,98.65 269.693,98.828 269.89,98.828C270.455,98.828 271.646,102.734 271.71,104.797C271.787,107.243 271.48,107.116 277.22,107.063C284.478,106.996 290.712,108.327 296.484,111.175C301.942,113.868 304.082,115.394 308.203,119.532C311.301,122.643 313.27,125.031 313.276,125.684C313.279,125.952 313.424,126.172 313.599,126.172C314.085,126.172 316.62,131.538 317.382,134.18C317.754,135.469 318.213,136.925 318.402,137.415C318.974,138.903 319.307,147.508 318.803,147.819C318.454,148.035 310.235,146.296 309.861,145.927C309.805,145.872 309.655,145.053 309.527,144.105C309.245,142.016 307.074,135.446 306.555,135.113C306.351,134.981 306.228,134.805 306.283,134.722C306.43,134.5 304.255,131.104 303.75,130.768C303.514,130.61 303.464,130.478 303.639,130.475C304.214,130.464 298.893,125.511 296.484,123.814C295.732,123.285 295.029,122.742 294.922,122.609C291.409,118.245 273.008,116.289 266.674,119.605C266.284,119.809 265.669,120.034 265.307,120.105C262.821,120.588 258.411,123.411 256.641,125.651C256.318,126.058 255.818,126.689 255.528,127.052C254.67,128.127 254.323,130.335 254.085,136.242C253.787,143.66 253.536,143.196 258.029,143.526C263.181,143.904 268.152,145.612 270.562,147.833C270.806,148.058 271.334,148.521 271.734,148.861C275.469,152.041 277.263,155.178 278.527,160.742C278.771,161.816 279.044,163.003 279.134,163.379C279.224,163.755 279.37,164.391 279.46,164.793C279.706,165.895 281.682,169.686 282.18,170.014C282.421,170.171 282.46,170.303 282.268,170.307C281.712,170.316 285.304,173.659 287.171,174.869C288.104,175.474 288.955,176.077 289.063,176.209C289.17,176.341 290.576,177.178 292.188,178.068C293.799,178.959 295.82,180.303 296.68,181.055C297.539,181.807 298.418,182.575 298.633,182.76C298.848,182.946 299.287,183.495 299.609,183.98C299.932,184.465 300.42,185.096 300.694,185.382C302.359,187.12 303.168,193.433 302.005,195.607C300.473,198.469 296.208,199.456 294.044,197.449C292.81,196.306 292.606,195.515 292.197,190.309C292.192,190.243 292.012,190.297 291.797,190.43C291.582,190.562 291.406,190.397 291.406,190.062C291.406,189.727 291.157,189.453 290.853,189.453C290.549,189.453 290.241,189.299 290.169,189.11C290.098,188.921 288.546,188.019 286.722,187.105C279.117,183.295 270.062,175.032 271.299,173.031C271.404,172.862 271.303,172.661 271.075,172.585C270.847,172.509 270.621,172.186 270.573,171.868C270.525,171.55 270.38,171.113 270.252,170.898C269.929,170.36 268.178,163.968 267.6,161.217C266.816,157.483 263.548,155.034 258.705,154.553C256.581,154.342 255.315,154.464 251.714,155.228C248.804,155.845 242.561,160.318 241.958,162.217C240.479,166.878 234.452,167.985 232.461,163.96C231.409,161.834 231.69,156.578 232.926,155.273C233.186,154.999 233.75,154.285 234.18,153.687C235.244,152.206 238.794,149.637 241.935,148.075C244.833,146.634 244.759,146.827 243.924,142.897C240.564,127.091 248.971,112.617 263.281,109.568C264.033,109.408 264.765,109.094 264.907,108.87C265.27,108.3 263.494,105.568 262.806,105.636C262.651,105.652 262.169,105.359 261.734,104.986C261.299,104.614 260.385,104.211 259.703,104.091C259.022,103.971 258.318,103.782 258.14,103.672C257.961,103.562 257.506,103.412 257.129,103.339C255.992,103.12 253.314,102.372 250.84,101.581C248.518,100.839 240.774,99.043 238.403,98.696C237.718,98.595 236.974,98.4 236.75,98.262C235.912,97.744 227.753,96.756 222.964,96.592L217.999,96.423L217.755,97.397C217.488,98.46 218.549,103.457 219.406,105.176C219.701,105.767 219.848,106.25 219.734,106.25C219.416,106.25 225.043,117.364 225.436,117.513C225.626,117.585 225.781,117.98 225.781,118.392C225.781,118.804 225.935,119.141 226.123,119.141C226.451,119.141 227.016,120.973 227.105,122.331C227.129,122.689 227.256,123.089 227.386,123.22C227.686,123.519 227.441,125.885 226.901,127.912C225.92,131.595 220.967,134.463 214.017,135.372C203.989,136.684 197.098,138.246 196.094,139.435C195.986,139.562 195.417,139.973 194.829,140.347C192.372,141.911 192.188,142.946 192.188,155.216C192.188,164.709 192.103,166.355 191.604,166.547C190.866,166.83 114.929,166.85 113.852,166.567C113.14,166.38 110.792,159.312 109.97,154.883C109.891,154.453 109.79,154.058 109.747,154.004C109.703,153.95 109.637,153.774 109.6,153.613C109.563,153.452 109.416,152.969 109.273,152.539C109.131,152.109 108.937,151.318 108.842,150.781C108.747,150.244 108.395,148.636 108.06,147.208C107.117,143.181 107.02,142.54 106.993,140.141C106.936,135.047 110.832,132.117 114.368,134.594C115.197,135.174 116.669,137.5 116.207,137.5C116.087,137.5 116.189,137.876 116.435,138.335C116.681,138.794 116.968,139.717 117.073,140.386C117.178,141.055 117.514,142.339 117.82,143.241C118.126,144.142 118.618,146.164 118.913,147.733C119.209,149.302 119.561,151.025 119.696,151.563C119.831,152.1 120.076,153.154 120.24,153.906L120.54,155.273L156.712,155.477L156.535,150.688C156.24,142.724 155.62,141.395 150.996,138.822C150.362,138.469 149.602,137.939 149.308,137.645C149.013,137.35 148.615,137.109 148.423,137.109C148.232,137.109 146.442,136.171 144.447,135.025C142.453,133.878 139.59,132.297 138.086,131.51C136.582,130.724 134.847,129.645 134.23,129.114C133.612,128.582 132.806,128.051 132.437,127.934C132.068,127.817 131.532,127.285 131.247,126.751C130.961,126.218 130.571,125.781 130.38,125.781C130.188,125.781 130.141,125.605 130.273,125.391C130.406,125.176 130.333,125 130.111,125C129.751,125 128.476,122.972 128.516,122.461C128.524,122.349 128.247,121.708 127.9,121.036C127.415,120.098 127.311,119.079 127.453,116.645C127.974,107.719 131.861,102.635 141.095,98.802C147.152,96.289 164.079,91.545 172.461,90.013C174.395,89.659 176.328,89.283 176.758,89.176C178.268,88.8 186.318,88.141 186.551,88.374C186.884,88.707 186.962,97.934 186.635,98.261C186.486,98.41 184.993,98.675 183.319,98.85C180.393,99.154 176.064,99.989 172.363,100.961C171.987,101.06 169.57,101.677 166.992,102.332C164.414,102.987 161.759,103.703 161.092,103.922C160.426,104.141 159.459,104.413 158.944,104.526C157.459,104.854 157.351,104.884 154.883,105.627C140.808,109.869 138.207,111.25 137.156,115.039C136.243,118.333 136.144,118.219 142.773,121.492C145.566,122.871 148.89,124.664 150.158,125.476C151.427,126.289 152.687,126.953 152.958,126.953C153.229,126.953 153.509,127.095 153.581,127.269C153.652,127.442 154.586,128.182 155.655,128.911C158.95,131.159 163.281,135.072 163.281,135.8C163.281,135.996 163.623,136.402 164.042,136.704C164.46,137.005 164.727,137.373 164.636,137.521C164.544,137.669 164.817,138.191 165.242,138.681C165.878,139.414 166.245,140.676 165.95,141.113C165.913,141.167 166.104,141.622 166.372,142.124C167.115,143.512 167.269,144.705 167.365,149.805C167.413,152.383 167.481,154.712 167.516,154.98C167.628,155.857 181.238,155.664 181.293,154.785C181.316,154.409 181.377,151.641 181.427,148.633C181.517,143.233 182.661,137.5 183.648,137.5C183.833,137.5 183.984,137.263 183.984,136.974C183.984,136.684 184.351,136.025 184.8,135.509C185.248,134.993 185.732,134.388 185.874,134.165C189.074,129.154 202.27,125 214.991,125L217.153,125L216.603,123.441C216.3,122.583 215.866,121.66 215.638,121.39C214.215,119.703 208.594,108.894 208.594,107.845C208.594,107.627 208.325,106.658 207.997,105.691C204.942,96.694 208.828,88.734 217.383,86.466C219.876,85.804 230.458,86.061 233.789,86.863M106.592,124.974C110.696,127.171 109.235,132.398 103.399,136.394C100.886,138.115 96.094,142.813 96.094,143.555C96.094,143.774 95.679,144.322 94.629,145.493C94.36,145.793 94.141,146.226 94.141,146.456C94.141,146.687 93.985,146.875 93.796,146.875C93.606,146.875 93.355,147.183 93.238,147.559C93.122,147.935 92.451,149.824 91.748,151.758C90.517,155.144 89.948,162.616 90.722,165.234C90.817,165.557 91.119,166.655 91.392,167.676C91.666,168.696 92.031,169.531 92.203,169.531C92.766,169.531 93.08,174.455 92.609,175.884C90.68,181.729 81.952,179.639 81.617,173.251C81.611,173.147 81.358,172.465 81.053,171.736C80.749,171.008 80.61,170.302 80.745,170.167C80.879,170.032 80.785,169.922 80.534,169.922C80.263,169.922 80.078,169.289 80.078,168.359C80.078,162.383 69.675,177.632 68.181,185.799C68.069,186.412 67.884,187.354 67.77,187.891C66.565,193.593 66.075,202.137 66.751,205.664C66.957,206.738 67.242,208.404 67.384,209.367C67.526,210.329 67.726,211.251 67.828,211.416C67.93,211.581 68.081,212.071 68.165,212.505C68.479,214.134 70.804,218.198 71.939,219.102C75.843,222.209 85.533,221.616 92.969,217.816C97.897,215.298 103.86,213.141 107.813,212.447C114.041,211.354 117.231,210.939 121.943,210.608L125.586,210.352L125.695,205.371L125.805,200.391L103.125,200.391L103.125,194.727C103.125,190.461 103.246,189.06 103.613,189.053C103.882,189.048 127.041,189.004 155.078,188.956L206.055,188.867L206.27,173.438C206.389,164.951 206.521,157.964 206.563,157.91C206.606,157.856 208.818,157.813 211.478,157.813L216.316,157.813L216.586,159.974C216.735,161.163 216.828,167.535 216.793,174.134C216.758,180.734 216.745,186.792 216.763,187.598L216.797,189.063L237.012,189.066L257.227,189.07L259.172,193.227C261.075,197.293 262.157,200 261.878,200C261.801,200 261.907,200.444 262.113,200.987C262.32,201.529 262.566,202.364 262.66,202.842C263.244,205.804 265.195,210.563 266.262,211.63C266.556,211.924 266.797,212.322 266.797,212.513C266.797,213.277 272.237,217.295 274.414,218.139C274.844,218.306 277.867,219.466 281.133,220.717C288.578,223.569 294.201,227.23 296.936,231.005C297.547,231.849 298.049,232.381 298.053,232.188C298.06,231.764 298.557,232.596 300.493,236.272C301.302,237.807 301.868,239.063 301.753,239.063C301.637,239.063 301.814,239.588 302.146,240.23C302.478,240.873 302.733,241.491 302.713,241.604C302.678,241.796 302.818,242.519 303.357,244.922C304.849,251.57 303.948,260.874 301.483,264.258C299.042,267.611 297.253,268.592 294.205,268.248C289.514,267.719 288.743,261.891 292.835,257.894C294.001,256.755 293.821,250.935 292.438,245.023C291.398,240.576 286.319,234.895 281.25,232.507C278.031,230.991 278.17,231.048 273.438,229.297C269.811,227.955 264.996,225.599 264.15,224.753C263.857,224.459 263.459,224.219 263.266,224.219C262.425,224.219 258.183,219.3 256.528,216.406C255.348,214.343 252.777,206.823 252.053,203.32C251.964,202.891 251.831,202.275 251.757,201.953C251.683,201.631 251.609,201.147 251.592,200.879C251.561,200.364 176.948,200.117 175.618,200.628C175.084,200.833 175,201.893 175,208.44L175,216.016L176.074,216.045C176.665,216.061 177.588,216.152 178.125,216.248C186.75,217.789 190.947,218.686 191.888,219.189C192.268,219.393 192.578,219.474 192.578,219.371C192.578,218.041 209.519,226.439 212.457,229.226C212.756,229.509 213.459,230.037 214.019,230.398C215.075,231.078 215.741,231.597 217.513,233.123C218.838,234.263 224.42,237.438 225.638,237.743C226.147,237.871 226.563,238.132 226.563,238.324C226.563,238.515 226.694,238.644 226.855,238.61C227.017,238.576 227.412,238.639 227.734,238.75C231.763,240.14 236.982,240.947 244.045,241.272L249.613,241.528L250.231,242.737C250.571,243.401 251.174,244.912 251.571,246.094C251.969,247.275 252.67,249.209 253.13,250.391C253.589,251.572 254.233,253.286 254.559,254.199C254.885,255.112 255.34,255.859 255.571,255.859C255.801,255.859 255.883,255.966 255.753,256.096C255.528,256.32 255.76,256.689 256.961,258.021C257.245,258.336 257.373,258.594 257.245,258.594C256.982,258.594 258.974,260.878 260.742,262.604C262.046,263.877 265.681,266.107 267.188,266.558C269.691,267.306 271.086,267.587 273.438,267.814C277.539,268.21 279.327,269.612 279.507,272.572C279.794,277.298 274.099,279.547 265.82,277.979C264.062,277.645 257.422,274.642 257.422,274.18C257.422,274.016 257.08,273.772 256.661,273.639C256.024,273.437 251.992,269.626 250.249,267.578C248.168,265.133 245.031,258.876 243.739,254.59L242.826,251.563L238.893,251.556C235.058,251.549 229.904,250.877 226.758,249.973C224.817,249.415 217.844,246.47 217.578,246.095C217.471,245.944 216.954,245.594 216.431,245.318C215.406,244.778 215.337,244.728 213.281,243.055C212.529,242.443 211.299,241.519 210.547,241.001C209.795,240.484 208.839,239.748 208.422,239.366C208.006,238.984 207.473,238.672 207.239,238.672C207.005,238.672 206.56,238.32 206.25,237.891C205.94,237.461 205.555,237.109 205.395,237.109C205.234,237.109 203.624,236.236 201.818,235.169C198.272,233.075 196.43,232.278 190.887,230.44C187,229.15 185.969,228.904 179.492,227.72C173.946,226.705 172.879,226.573 168.066,226.298L164.063,226.069L164.063,200.391L150.391,200.391C142.871,200.391 136.701,200.522 136.679,200.684C136.657,200.845 136.567,204.488 136.478,208.78C136.365,214.297 136.176,216.715 135.835,217.031C134.487,218.279 125.864,220.614 118.65,221.685C108.953,223.125 105.391,224.139 96.68,227.944C89.298,231.168 74.213,232.962 71.74,230.909C71.384,230.614 71.094,230.485 71.094,230.622C71.094,230.902 66.615,228.704 65.745,227.997C61.172,224.28 57.398,216.675 56.406,209.18C55.917,205.479 55.736,202.938 55.74,199.805C55.744,196.263 56.226,188.672 56.473,188.248C56.547,188.123 56.711,187.42 56.839,186.686C56.967,185.952 57.345,184.407 57.679,183.253C58.013,182.099 58.342,180.869 58.41,180.519C58.478,180.169 58.547,179.839 58.564,179.785C58.58,179.731 58.628,179.556 58.669,179.395C61.27,169.237 70.319,158.863 76.922,158.469C79.454,158.319 79.573,158.175 79.9,154.883C80.297,150.877 83.674,141.13 84.817,140.69C85.004,140.618 85.156,140.311 85.156,140.007C85.156,139.702 85.332,139.453 85.547,139.453C85.762,139.453 85.938,139.259 85.938,139.021C85.938,137.598 93.575,129.905 97.592,127.283C101.733,124.58 104.52,123.865 106.592,124.974M309.063,156.017C315.48,157.718 321.424,161.41 326.69,166.969C329.336,169.761 329.608,170.1 330.143,171.274C330.391,171.82 330.72,172.266 330.873,172.266C331.127,172.266 333.56,177.016 333.773,177.93C333.823,178.145 334.048,178.766 334.274,179.311C337.027,185.978 338.294,197.959 336.895,204.102C336.748,204.746 336.619,205.493 336.608,205.762C336.597,206.03 336.432,206.25 336.24,206.25C336.048,206.25 335.98,206.394 336.089,206.569C336.457,207.165 332.907,215.848 332.073,216.391C331.895,216.507 331.434,217.217 331.049,217.969C329.467,221.055 322.656,228.906 321.561,228.906C321.385,228.906 320.9,229.218 320.484,229.599C318.137,231.744 312.554,233.071 311.016,231.849C307.358,228.939 308.25,225.017 313.357,221.558C319.966,217.082 324.025,211.089 326.105,202.734C326.618,200.674 326.314,188.675 325.749,188.673C325.623,188.672 325.512,188.452 325.501,188.184C325.434,186.51 322.413,178.655 321.482,177.734C321.374,177.627 320.772,176.836 320.144,175.977C317.784,172.741 314.168,169.6 310.918,167.959C308.423,166.699 303.391,165.234 301.56,165.234C297.472,165.234 296.937,157.766 300.901,156.042C302.524,155.336 306.448,155.324 309.063,156.017M119.303,236.968C120.783,237.973 121.452,238.495 123.177,239.991C124.152,240.836 131.517,244.409 132.877,244.697C133.379,244.803 134.917,245.165 136.295,245.502C146.476,247.991 163.393,247.366 173.368,244.133C178.17,242.576 178.116,242.593 178.227,242.635C178.278,242.654 179.004,242.384 179.84,242.035C189.075,238.177 193.122,247.395 184.235,252.046C183.345,252.511 182.485,252.857 182.324,252.813C182.163,252.77 182.031,252.939 182.031,253.19C182.031,253.441 181.921,253.536 181.786,253.401C181.652,253.266 181.002,253.435 180.343,253.776C178.454,254.753 171.266,256.801 167.383,257.468C161.614,258.46 146.884,258.764 141.602,258C122.705,255.267 107.831,245.227 111.873,237.934C113.103,235.714 116.759,235.239 119.303,236.968" style="fill:rgb(64,145,116);stroke:rgb(64,145,116);stroke-width:3.47px;"/>
        </g>
    </g>
    <g transform="matrix(1,0,0,1,-1.51599,-1.38484)">
        <g id="path1" transform="matrix(1,0,0,1,-2.46874e-06,4.65826e-06)">
            <path d="M188.477,1.566C180.103,1.829 178.596,1.936 171.289,2.779C157.536,4.366 137.927,9.15 126.953,13.595C83.413,31.232 53.317,56.173 31.176,92.969C28.443,97.511 21.875,109.265 21.875,109.614C21.875,109.699 21.107,111.394 20.167,113.38C13.328,127.847 5.753,151.533 4.459,162.5C4.319,163.682 4.13,164.776 4.038,164.932C3.946,165.089 3.621,167.374 3.314,170.011C1.923,181.982 1.517,188.135 1.516,197.266C1.515,205.959 1.613,208.611 2.16,214.648C2.258,215.723 2.605,219.572 2.931,223.203C3.571,230.309 3.626,230.73 4.505,235.156C5.311,239.209 5.432,239.845 5.701,241.406C5.831,242.158 6.178,243.746 6.472,244.934C6.767,246.122 7.121,247.792 7.259,248.645C7.781,251.866 10.068,259.965 12.448,267.019C24.234,301.952 47.59,335.163 75.801,357.103C80.836,361.019 83.431,362.913 87.439,365.596C92.413,368.927 102.729,375 103.413,375C103.649,375 103.9,375.132 103.971,375.293C104.148,375.689 113.761,380.425 116.992,381.708C118.066,382.134 119.473,382.729 120.117,383.03C125.485,385.535 144.488,391.56 152.539,393.308C153.613,393.542 155.723,393.998 157.227,394.323C195.484,402.585 243.857,398.12 277.93,383.182C279.004,382.711 280.586,382.016 281.445,381.638C282.305,381.26 284.238,380.416 285.742,379.762C289.777,378.006 299.808,372.783 304.492,369.997C328,356.017 350.164,334.699 365.284,311.523C368.434,306.696 369.922,304.314 369.922,304.099C369.922,303.984 370.345,303.234 370.863,302.433C376.503,293.703 385.543,272.646 389.433,259.18C390.938,253.969 392.475,248.163 392.755,246.633C392.868,246.014 393.049,245.068 393.157,244.531C393.874,240.974 395.243,233.578 395.507,231.836C396.008,228.538 397.271,218.361 397.834,213.086C398.625,205.677 398.413,185.013 397.478,178.32C397.388,177.676 397.217,176.182 397.099,175C396.981,173.818 396.805,172.412 396.709,171.875C396.613,171.338 396.432,170.195 396.307,169.336C396.067,167.683 395.837,166.182 395.53,164.258C395.428,163.613 395.17,162.383 394.957,161.523C394.744,160.664 394.569,159.916 394.567,159.86C394.549,158.921 393.208,152.503 392.834,151.563C392.706,151.24 392.526,150.537 392.434,150C391.506,144.549 383.718,122.905 379.292,113.477C377.335,109.307 374.229,103.091 373.827,102.539C373.67,102.324 373.103,101.357 372.565,100.391C369.786,95.387 365.26,88.068 361.899,83.141C358.196,77.713 356.576,75.621 349.392,66.992C345.903,62.802 337.123,53.903 332.813,50.188C331.631,49.169 330.137,47.874 329.492,47.31C328.848,46.746 327.529,45.675 326.563,44.93C325.596,44.185 324.717,43.478 324.609,43.359C324.502,43.241 323.623,42.536 322.656,41.792C321.689,41.049 320.689,40.263 320.433,40.045C318.688,38.56 307.895,31.326 305.837,30.262C305.138,29.9 304.373,29.439 304.138,29.238C302.321,27.678 286.484,19.628 278.711,16.313C268.484,11.951 264.362,10.562 251.758,7.229C248.556,6.383 239.479,4.515 236.548,4.1C225.106,2.478 216.171,1.715 207.289,1.6C203.672,1.553 199.892,1.466 198.891,1.406C197.89,1.346 193.203,1.418 188.477,1.566M218.594,66.024C219.594,66.248 221.17,66.778 222.098,67.2C223.026,67.623 223.892,67.969 224.023,67.969C224.545,67.969 228.835,71.158 230.859,73.05C233.368,75.395 233.74,75.406 237.307,73.254C242.913,69.872 254.141,68.333 258.789,70.31C262.565,71.916 265.189,73.228 266.283,74.057C266.966,74.576 267.623,75 267.742,75C268.23,75 271.784,78.877 273.209,80.964L274.739,83.203L279.85,83.218C293.278,83.257 304.615,89.05 307.834,97.517C308.081,98.168 308.779,98.581 310.434,99.056C319.286,101.599 328.235,109.495 333.416,119.336C334.435,121.27 335.393,123.027 335.548,123.242C335.702,123.457 335.939,124.218 336.074,124.934C336.21,125.649 336.568,126.792 336.87,127.473C337.741,129.439 338.284,133.015 338.511,138.281C338.791,144.779 338.69,144.497 341.49,146.56C353.674,155.537 357.51,168.296 351.565,180.073C350.168,182.84 350.155,182.988 351.21,184.098C352.402,185.353 354.725,189.045 355.185,190.419C355.404,191.069 355.713,191.777 355.874,191.992C357.153,193.706 357.74,206.138 356.685,209.18C354.396,215.78 350.694,220.595 345.867,223.249C341.716,225.532 341.444,225.948 342.436,228.516C342.748,229.323 342.733,234.3 342.411,236.591C341.307,244.45 335.049,251.336 327.051,253.489C324.99,254.044 324.675,254.638 324.572,258.156C324.43,263.035 322.8,269.372 321.029,271.935C320.635,272.506 320.313,273.156 320.313,273.382C320.313,274.442 314.172,280.02 311.719,281.188C306.713,283.573 299.066,284.32 294.332,282.886C292.824,282.43 291.548,282.908 291.206,284.057C290.954,284.905 290.372,285.89 287.93,289.601C278.378,304.119 251.045,307.366 234.133,295.992C233.304,295.434 232.492,294.227 231.594,292.219C224.289,275.883 219.483,269.257 210.804,263.556C205.83,260.29 203.666,259.813 201.621,261.534C198.444,264.207 199.682,267.873 204.765,270.845C218.663,278.97 231.902,309.294 232.012,333.253C232.035,338.289 232.197,338.12 227.01,338.477C224.785,338.631 221.533,338.886 219.783,339.045C216.151,339.375 215.625,339.151 215.625,337.27C215.625,332.333 212.865,319.69 210.543,313.993C209.902,312.42 209.377,310.928 209.376,310.677C209.376,310.426 209.243,310.163 209.082,310.091C208.921,310.02 207.825,308.027 206.646,305.664C204.844,302.052 200.402,294.811 199.576,294.141C199.444,294.033 199.11,293.517 198.834,292.993C198.558,292.47 198.178,291.855 197.991,291.626C196.188,289.434 194.531,287.118 194.531,286.793C194.531,286.573 194.383,286.335 194.203,286.263C193.851,286.123 191.88,283.403 189.158,279.297C188.232,277.9 186.597,275.052 185.526,272.967C183.077,268.202 183.718,268.405 177.636,270.468C171.292,272.62 165.725,274.035 161.328,274.613C159.502,274.853 157.393,275.164 156.641,275.304C148.989,276.73 129.51,274.349 122.07,271.079C116.901,268.806 113.12,266.793 109.336,264.296C106.335,262.316 100.667,256.229 98.361,252.509L96.116,247.759L93.901,249.071C92.636,249.097 89.217,249.254 86.303,249.419C68.779,250.416 51.27,241.532 45.69,228.813C45.477,228.327 44.982,227.402 44.59,226.758C40.145,219.446 40.167,203.352 44.635,194.248L46.212,191.035L45.411,189.365C41.454,181.12 41.822,170.546 46.355,162.19C49.173,156.995 55.927,149.48 59.442,147.628C59.942,147.364 60.439,147.035 60.547,146.897C60.654,146.758 61.973,146.033 63.477,145.284L66.211,143.924L66.327,140.028C66.542,132.859 69.408,126.501 75.186,120.378C77.132,118.316 80.456,115.625 81.057,115.625C81.144,115.625 81.843,115.199 82.609,114.679C84.22,113.586 89.348,111.568 91.536,111.165C92.856,110.923 93.127,110.672 93.818,109.058C98.537,98.037 106.593,92.438 118.945,91.593C123.328,91.293 123.724,91.179 124.058,90.117C125.305,86.142 130.371,81.162 135.156,79.206C140.517,77.015 148.098,76.203 154.15,77.17C155.597,77.402 155.82,77.291 158.202,75.165C167.887,66.524 178.047,65.377 189.168,71.669C193.377,74.05 194.067,74.207 195.14,73.022C196.412,71.616 200.712,68.737 203.034,67.736C204.266,67.205 205.625,66.602 206.055,66.396C208.033,65.448 215.09,65.239 218.594,66.024M218.891,86.743C206.038,88.401 204.316,101.772 214.759,118.811C218.91,125.583 219.072,125.232 211.544,125.767C189.801,127.311 182.71,133.047 182.07,149.609L181.836,155.664L175,155.775C165.703,155.927 166.604,156.492 166.52,150.461C166.369,139.748 164.44,136.174 155.078,129.264C152.815,127.594 146.485,124.019 140.43,120.991C136.465,119.009 135.959,118.565 136.165,117.253C136.255,116.68 136.426,115.629 136.546,114.918C137.231,110.841 144.094,107.646 161.914,103.109C164.277,102.508 168.672,101.375 171.68,100.592C177.627,99.044 182.692,98.048 184.626,98.047C185.385,98.047 185.944,97.811 186.091,97.429C186.553,96.226 186.351,89.567 185.84,89.151C184.573,88.117 168.876,90.973 157.139,94.373C155.372,94.885 152.559,95.666 150.889,96.109C134.596,100.428 128.017,106.554 128.248,117.188C128.404,124.33 130.86,127.072 142.773,133.401C156.474,140.68 156.87,141.177 157.088,151.367L157.179,155.664L138.797,155.766C124.378,155.845 120.334,155.761 120.041,155.375C119.835,155.104 119.26,153.125 118.762,150.977C115.064,135.007 114.612,134.013 111.258,134.462C107.137,135.014 106.618,138.837 109.202,149.609C109.534,150.993 110.926,156.227 111.487,158.203C111.823,159.385 112.388,161.494 112.743,162.891C113.098,164.287 113.547,165.604 113.741,165.816C114.118,166.229 190.571,166.199 190.986,165.786C191.11,165.662 191.299,160.61 191.406,154.558C191.616,142.743 191.684,142.34 193.811,140.357C194.875,139.364 199.312,137.231 200.882,136.957C201.475,136.854 202.266,136.672 202.64,136.554C203.603,136.248 210.485,135.204 214.648,134.731C225.515,133.496 229.511,126.83 224.744,117.891C218.512,106.203 215.956,98.793 217.368,96.508C217.883,95.675 230.016,96.196 234.766,97.255C239.379,98.284 241.4,98.713 244.141,99.243C245.322,99.472 247.168,99.91 248.242,100.216C249.316,100.522 252.476,101.407 255.263,102.182C262.619,104.227 264.891,105.582 265.782,108.454C266.017,109.212 265.771,109.373 263.197,110.153C252.897,113.272 246.543,119.535 245.161,127.93C245.055,128.574 244.759,129.805 244.504,130.664C243.659,133.511 243.821,139.41 244.895,144.895C245.361,147.276 245.332,147.311 241.417,149.15C235.412,151.97 232.347,155.842 232.37,160.578C232.398,166.439 238.303,167.982 240.767,162.772C244.108,155.711 255.924,151.753 263.156,155.272C266.721,157.007 267.277,157.827 268.743,163.512C271.958,175.974 275.433,180.545 285.817,185.967C292.586,189.502 292.969,189.879 292.969,193.013C292.969,198.552 299.259,200.023 301.41,194.987C303.445,190.223 299.834,183.399 293.164,179.405C283.724,173.751 278.516,168.274 278.516,163.999C278.516,153.788 268.446,144.287 257.411,144.087C253.231,144.011 253.457,144.265 253.329,139.519C253.098,130.941 254.062,127.26 257.363,124.112C266.566,115.334 286.131,114.982 296.784,123.402C297.896,124.281 298.899,125 299.014,125C299.432,125 303.967,129.831 305.114,131.497C307.09,134.37 308.975,138.767 309.626,142.023C310.389,145.843 310.086,145.555 314.277,146.446C318.523,147.349 318.359,147.441 318.359,144.152C318.359,123.729 300.249,108.009 276.348,107.686L271.289,107.617L271.044,104.883C270.754,101.637 269.532,98.817 267.827,97.453C267.153,96.914 266.376,96.287 266.101,96.061C264.475,94.723 260.039,93.403 245.117,89.814C233.531,87.027 224.703,85.994 218.891,86.743M100.977,126.022C89.973,131.669 81.687,143.565 80.63,155.233C80.314,158.721 80.203,158.843 77.143,159.054C62.91,160.037 51.978,190.852 57.97,213.097C62.14,228.576 70.32,233.321 87.499,230.224C90.945,229.603 91.811,229.297 99.123,226.118C103.84,224.067 110.945,222.149 116.371,221.463C122.612,220.674 126.357,219.927 129.102,218.925C130.605,218.376 132.451,217.746 133.203,217.526C135.459,216.865 135.547,216.551 135.547,209.154C135.547,205.462 135.657,201.892 135.791,201.221L136.035,200L150.218,200C163.388,200 164.415,200.049 164.602,200.684C164.713,201.06 164.758,206.694 164.701,213.205C164.63,221.248 164.73,225.125 165.012,225.299C165.241,225.441 167.449,225.672 169.921,225.813C172.392,225.954 175.381,226.261 176.563,226.495C177.744,226.729 180.582,227.283 182.869,227.726C191.229,229.345 199.157,232.442 205,236.371C205.924,236.992 206.771,237.5 206.883,237.5C206.995,237.5 207.314,237.72 207.592,237.988C215.533,245.661 226.734,250.402 238.391,251.025C244.005,251.325 243.272,250.764 244.947,256.055C248.033,265.808 255.113,273.675 263.413,276.573C267.357,277.951 274.556,278.137 276.361,276.909C281.044,273.722 278.953,268.359 273.026,268.359C266.976,268.359 260.376,264.48 256.545,258.674C253.531,254.105 253.685,254.444 250.446,245.313L249.407,242.383L247.653,242.119C246.688,241.974 244.567,241.842 242.94,241.826C233.692,241.735 224.487,238.933 218.109,234.267C216.575,233.145 214.126,231.348 212.667,230.273C208.4,227.131 206.219,225.733 203.516,224.403C195.761,220.59 190.711,219.021 180.811,217.349C177.509,216.792 174.677,216.132 174.519,215.883C174.175,215.342 174.127,202.14 174.465,200.879L174.7,200L251.922,200L252.303,201.465C257.182,220.212 260.07,223.651 275.977,229.658C289.254,234.672 293.531,240.063 294.031,252.415L294.231,257.369L292.586,259.321C289.283,263.238 290.859,267.969 295.468,267.969C301.101,267.969 304.676,257.791 302.946,246.68C300.971,234 293.339,225.355 280.314,221.046C279.003,220.612 277.578,220.111 277.148,219.933C267.229,215.826 264.392,212.55 261.748,202.148C260.688,197.975 257.88,191.053 256.757,189.844C256.658,189.736 247.494,189.561 236.393,189.453L216.211,189.258L216.004,173.828C215.891,165.342 215.759,158.354 215.711,158.301C215.275,157.807 207.473,158.288 207.268,158.821C207.138,159.161 207.031,165.914 207.031,173.828C207.031,181.742 206.925,188.495 206.794,188.835C206.58,189.394 201.677,189.453 155.273,189.453C108.87,189.453 103.967,189.512 103.753,190.071C103.282,191.299 103.491,199.157 104.004,199.489C104.272,199.662 109.414,199.893 115.43,200L126.367,200.195L126.441,205.363C126.481,208.205 126.387,210.609 126.232,210.705C125.922,210.897 124.076,211.103 116.992,211.738C107.552,212.584 99.395,214.858 93.384,218.32C85.962,222.595 74.78,222.766 70.681,218.667C65.29,213.277 64.26,198.933 68.15,183.443C69.401,178.46 74.037,170.699 77.917,167.09C80.264,164.907 80.433,165.063 81.1,170.026C81.179,170.62 81.524,171.763 81.865,172.565C82.206,173.367 82.553,174.353 82.636,174.756C83.035,176.695 85.59,178.902 87.441,178.905C91.789,178.912 93.312,174.583 91.039,168.679C86.898,157.925 91.483,144.627 102.125,136.523C107.044,132.778 108.196,131.422 108.201,129.375C108.208,125.469 104.977,123.969 100.977,126.022M302.349,156.259C296.443,157.648 297.813,164.121 304.214,165.066C309.125,165.792 316.338,169.866 318.688,173.242C319.137,173.887 320.02,174.977 320.65,175.664C331.763,187.791 328.347,212.175 314.195,221.744C305.248,227.792 309.811,235.261 319.084,229.747C337.633,218.716 342.378,188.898 328.564,170.174C322.143,161.471 309.262,154.634 302.349,156.259M113.761,236.98C112.115,237.643 111.632,241.581 112.932,243.75C121.385,257.855 159.59,262.636 182.14,252.411C186.778,250.308 189.156,247.298 188.338,244.566C187.388,241.396 184.616,241.09 177.664,243.386C160.001,249.22 143.984,249.318 128.516,243.686C127.114,243.176 122.092,239.994 119.376,237.895C117.897,236.753 115.356,236.339 113.761,236.98" style="fill:rgb(242,180,63);"/>
        </g>
    </g>
</svg>
